<svg xmlns="http://www.w3.org/2000/svg" width="1024" height="1024" viewBox="0 0 1024 1024">
  <defs>
    <linearGradient id="bg" x1="140" y1="120" x2="880" y2="900" gradientUnits="userSpaceOnUse">
      <stop offset="0" stop-color="#B687FF"/>
      <stop offset="0.46" stop-color="#8259F5"/>
      <stop offset="1" stop-color="#20A8AD"/>
    </linearGradient>
    <linearGradient id="shine" x1="260" y1="190" x2="690" y2="850" gradientUnits="userSpaceOnUse">
      <stop stop-color="#FFFEFC" stop-opacity="0.35"/>
      <stop offset="1" stop-color="#FFFEFC" stop-opacity="0"/>
    </linearGradient>
    <filter id="shadow" x="-20%" y="-20%" width="140%" height="150%">
      <feDropShadow dx="0" dy="28" stdDeviation="30" flood-color="#281C48" flood-opacity="0.28"/>
    </filter>
  </defs>
  <rect x="64" y="64" width="896" height="896" rx="216" fill="url(#bg)" filter="url(#shadow)"/>
  <path d="M224 214C340 116 536 98 700 160C821 206 900 304 934 418V280C934 161 863 90 744 90H280C161 90 90 161 90 280V548C108 418 147 279 224 214Z" fill="url(#shine)"/>
  <ellipse cx="492" cy="536" rx="296" ry="172" transform="rotate(-31 492 536)" fill="none" stroke="#FFFEFC" stroke-width="46" stroke-linecap="round"/>
  <circle cx="492" cy="536" r="82" fill="#FFFEFC"/>
  <circle cx="742" cy="260" r="52" fill="#FFFEFC"/>
  <circle cx="742" cy="260" r="19" fill="#8259F5" opacity="0.26"/>
</svg>
