<svg xmlns="http://www.w3.org/2000/svg" width="1024" height="1024" viewBox="0 0 1024 1024">
<defs>
<linearGradient id="body" x1="200" y1="110" x2="830" y2="910" gradientUnits="userSpaceOnUse"><stop stop-color="#221F26"/><stop offset="1" stop-color="#100F13"/></linearGradient>
<linearGradient id="ring" x1="250" y1="300" x2="750" y2="770" gradientUnits="userSpaceOnUse"><stop stop-color="#FBF9F5"/><stop offset=".55" stop-color="#F1EFEB"/><stop offset="1" stop-color="#C9C2B6"/></linearGradient>
<linearGradient id="sh" x1="260" y1="190" x2="690" y2="850" gradientUnits="userSpaceOnUse"><stop stop-color="#FFF8EC" stop-opacity=".13"/><stop offset="1" stop-color="#fff" stop-opacity="0"/></linearGradient>
</defs>
<rect x="64" y="64" width="896" height="896" rx="216" fill="url(#body)"/>
<path d="M224 214C340 116 536 98 700 160C821 206 900 304 934 418V280C934 161 863 90 744 90H280C161 90 90 161 90 280V548C108 418 147 279 224 214Z" fill="url(#sh)"/>
<ellipse cx="492" cy="536" rx="296" ry="172" transform="rotate(-31 492 536)" fill="none" stroke="url(#ring)" stroke-width="46" stroke-linecap="round"/>
<circle cx="492" cy="536" r="82" fill="url(#ring)"/>
<circle cx="742" cy="260" r="52" fill="url(#ring)"/>
</svg>
